<?xml version="1.0" encoding="UTF-8"?>
<svg xmlns="http://www.w3.org/2000/svg" xmlns:xlink="http://www.w3.org/1999/xlink" width="500px" height="500px" viewBox="0 0 500 500" version="1.1">
<g id="surface1">
<path style=" stroke:none;fill-rule:nonzero;fill:rgb(0%,0%,0%);fill-opacity:1;" d="M 114.292969 320.75 C 109.964844 327.691406 103.773438 330.679688 95.957031 329.476562 C 88.386719 328.308594 83.644531 323.597656 81.703125 316.1875 C 81.148438 314.066406 81.050781 311.859375 81.050781 309.65625 C 81.058594 284.675781 81.0625 259.699219 81.070312 234.71875 C 81.070312 231.203125 81.070312 231.203125 77.652344 231.128906 C 73.882812 231.046875 71.363281 228.808594 71.269531 225.464844 C 71.175781 222.074219 73.800781 219.65625 77.660156 219.582031 C 81.0625 219.511719 81.066406 219.511719 81.066406 216.238281 C 81.0625 208.996094 81.035156 201.753906 81.070312 194.511719 C 81.078125 192.96875 80.757812 191.964844 79.066406 191.414062 C 74.144531 189.804688 70.699219 186.433594 68.765625 181.6875 C 67.972656 179.738281 66.851562 179.050781 64.902344 179.289062 C 64.339844 179.355469 63.757812 179.34375 63.195312 179.292969 C 59.4375 178.949219 56.402344 179.28125 54.226562 183.355469 C 52.277344 187.003906 48.082031 187.984375 44.03125 188.058594 C 38.335938 188.160156 32.636719 188.164062 26.945312 188.054688 C 19.121094 187.90625 14.085938 182.664062 14.078125 174.8125 C 14.066406 165.375 14.058594 155.9375 14.082031 146.496094 C 14.097656 138.996094 19.296875 133.71875 26.789062 133.648438 C 32.808594 133.59375 38.835938 133.523438 44.851562 133.679688 C 49.75 133.804688 53.660156 135.929688 55.84375 140.484375 C 56.554688 141.960938 57.40625 142.644531 59.007812 142.433594 C 59.488281 142.371094 59.992188 142.371094 60.46875 142.4375 C 64.855469 143.015625 67.910156 142.222656 70.148438 137.449219 C 72.753906 131.894531 78.210938 129.355469 84.464844 129.332031 C 99.027344 129.277344 113.601562 129.039062 128.15625 129.390625 C 143.578125 129.761719 157.816406 134.113281 169.941406 144.070312 C 180.171875 152.472656 185.691406 163.53125 187.632812 176.488281 C 188.039062 179.214844 188.214844 181.976562 188.496094 184.71875 C 188.519531 184.964844 188.523438 185.207031 188.53125 185.453125 C 188.617188 188.730469 187.222656 191.085938 184.597656 192.113281 C 182.234375 193.035156 179.613281 192.097656 177.574219 189.527344 C 173.496094 184.378906 168.65625 180.074219 163.214844 176.421875 C 153.886719 170.164062 143.507812 167.367188 132.386719 166.925781 C 131.011719 166.871094 130.441406 167.285156 130.480469 168.679688 C 130.535156 170.710938 130.503906 172.746094 130.480469 174.78125 C 130.394531 182.234375 126.160156 188.578125 119.160156 191.1875 C 116.914062 192.027344 116.308594 193.183594 116.351562 195.453125 C 116.492188 202.527344 116.480469 209.609375 116.359375 216.6875 C 116.320312 218.921875 116.984375 219.855469 119.265625 219.589844 C 120.554688 219.4375 121.867188 219.566406 123.082031 220.164062 C 125.382812 221.296875 126.699219 223.9375 126.207031 226.460938 C 125.675781 229.179688 123.632812 230.914062 120.714844 231.117188 C 116.414062 231.421875 116.417969 231.421875 116.414062 235.761719 C 116.414062 238.527344 116.445312 241.296875 116.375 244.0625 C 116.292969 247.183594 114.234375 249.308594 111.054688 249.679688 C 108.5 249.976562 106.070312 248.253906 105.253906 245.492188 C 104.476562 242.859375 104.929688 240.152344 104.902344 237.480469 C 104.839844 231.125 104.886719 231.125 98.429688 231.128906 C 97.210938 231.128906 95.988281 231.15625 94.769531 231.136719 C 93.441406 231.117188 92.8125 231.742188 92.871094 233.070312 C 92.882812 233.3125 92.863281 233.554688 92.863281 233.800781 C 92.863281 259.675781 92.859375 285.550781 92.875 311.425781 C 92.878906 314.820312 94.082031 316.75 96.566406 317.660156 C 100.710938 319.175781 104.628906 316.640625 104.828125 312.167969 C 104.972656 308.921875 104.878906 305.660156 104.878906 302.40625 C 104.882812 294.269531 104.828125 286.132812 104.898438 277.996094 C 104.941406 273.25 108.601562 270.382812 112.582031 271.867188 C 114.925781 272.742188 116.371094 274.414062 116.375 277.003906 C 116.390625 289.371094 116.40625 301.738281 116.332031 314.105469 C 116.320312 316.402344 115.453125 318.554688 114.292969 320.75 M 114.792969 180.480469 C 117.660156 179.363281 118.917969 177.121094 118.910156 174.1875 C 118.878906 163.945312 118.773438 153.703125 118.695312 143.464844 C 118.691406 143.21875 118.667969 142.976562 118.667969 142.730469 C 118.65625 141.421875 117.996094 140.808594 116.683594 140.839844 C 115.0625 140.878906 113.4375 140.898438 111.816406 140.90625 C 102.792969 140.953125 93.769531 140.886719 84.753906 141.082031 C 80.78125 141.167969 78.855469 143.355469 78.828125 147.335938 C 78.761719 156.449219 78.753906 165.558594 78.808594 174.667969 C 78.832031 178.359375 81.5 180.875 85.214844 180.890625 C 92.617188 180.925781 100.019531 180.953125 107.421875 180.921875 C 109.765625 180.914062 112.105469 180.714844 114.792969 180.480469 M 33.9375 176.226562 C 37.027344 176.226562 40.121094 176.164062 43.207031 176.25 C 45.117188 176.304688 45.761719 175.527344 45.746094 173.644531 C 45.679688 165.1875 45.667969 156.730469 45.753906 148.273438 C 45.777344 146.066406 44.964844 145.175781 42.769531 145.210938 C 38.21875 145.285156 33.660156 145.277344 29.109375 145.21875 C 26.800781 145.1875 25.765625 145.976562 25.800781 148.488281 C 25.921875 156.703125 25.902344 164.917969 25.800781 173.128906 C 25.773438 175.386719 26.382812 176.488281 28.816406 176.246094 C 30.347656 176.097656 31.90625 176.222656 33.9375 176.226562 M 171.277344 163.449219 C 162.53125 148.859375 148.707031 143.132812 132.648438 141.277344 C 130.84375 141.070312 130.410156 141.953125 130.453125 143.558594 C 130.527344 146.566406 130.585938 149.582031 130.449219 152.582031 C 130.355469 154.628906 131.175781 155.203125 133.117188 155.300781 C 146.882812 155.996094 159.675781 159.746094 171.097656 167.683594 C 171.644531 168.0625 172.207031 168.707031 173.148438 168.210938 C 173.109375 166.535156 172.085938 165.21875 171.277344 163.449219 M 102.585938 219.59375 C 104.042969 219.6875 104.894531 219.183594 104.886719 217.542969 C 104.867188 209.824219 104.878906 202.105469 104.902344 194.390625 C 104.90625 193.074219 104.367188 192.445312 103.019531 192.464844 C 100.257812 192.496094 97.492188 192.5 94.730469 192.472656 C 93.398438 192.460938 92.824219 193.050781 92.824219 194.378906 C 92.84375 202.097656 92.855469 209.816406 92.824219 217.535156 C 92.816406 219.152344 93.566406 219.664062 95.070312 219.621094 C 97.425781 219.558594 99.78125 219.601562 102.585938 219.59375 M 67.222656 166.433594 C 67.238281 162.945312 67.222656 159.453125 67.28125 155.964844 C 67.304688 154.519531 66.726562 153.902344 65.257812 153.957031 C 63.3125 154.023438 61.359375 154.035156 59.414062 153.949219 C 57.871094 153.882812 57.167969 154.429688 57.238281 156.042969 C 57.320312 157.90625 57.253906 159.773438 57.257812 161.640625 C 57.257812 167.769531 57.261719 167.8125 63.390625 167.746094 C 64.660156 167.730469 66.207031 168.40625 67.222656 166.433594 Z M 67.222656 166.433594 "/>
<path style=" stroke:none;fill-rule:nonzero;fill:rgb(0%,0%,0%);fill-opacity:1;" d="M 481.992188 203.464844 C 478.074219 211.730469 473.25 219.28125 468.917969 227.105469 C 464.46875 235.144531 459.859375 243.101562 455.238281 251.046875 C 454.363281 252.554688 454.339844 253.757812 455.144531 255.320312 C 464.164062 272.820312 473.109375 290.351562 482.078125 307.875 C 482.410156 308.527344 482.765625 309.167969 483.070312 309.835938 C 484.371094 312.699219 483.574219 314.347656 480.425781 314.445312 C 474.738281 314.621094 469.039062 314.519531 463.34375 314.449219 C 461.203125 314.421875 460.089844 312.945312 459.183594 311.171875 C 453.203125 299.429688 447.183594 287.707031 441.167969 275.984375 C 440.699219 275.066406 440.359375 274.039062 439.058594 273.175781 C 437.066406 277.585938 433.625 281.109375 433.691406 286.296875 C 433.792969 294.105469 433.726562 301.917969 433.707031 309.730469 C 433.699219 313.445312 432.640625 314.511719 428.902344 314.539062 C 424.671875 314.566406 420.441406 314.546875 416.207031 314.523438 C 412.132812 314.5 411.058594 313.417969 411.054688 309.238281 C 411.035156 297.765625 411.046875 286.289062 411.046875 274.816406 C 411.042969 251.871094 411.039062 228.921875 411.035156 205.976562 C 411.03125 201.382812 411.859375 200.550781 416.402344 200.550781 C 420.714844 200.546875 425.027344 200.523438 429.339844 200.550781 C 432.621094 200.570312 433.707031 201.652344 433.710938 204.976562 C 433.734375 216.9375 433.722656 228.898438 433.722656 240.859375 C 433.722656 241.730469 433.722656 242.597656 433.722656 243.707031 C 435.113281 243.222656 435.363281 242.207031 435.816406 241.429688 C 442.976562 229.128906 450.167969 216.84375 457.214844 204.476562 C 458.804688 201.691406 460.710938 200.324219 464.027344 200.488281 C 468.816406 200.722656 473.628906 200.53125 478.429688 200.5625 C 480.257812 200.574219 481.894531 200.949219 481.992188 203.464844 Z M 481.992188 203.464844 "/>
<path style=" stroke:none;fill-rule:nonzero;fill:rgb(0%,0%,0%);fill-opacity:1;" d="M 330.347656 200.5625 C 332.726562 200.679688 333.332031 202.210938 333.769531 203.972656 C 336.597656 215.398438 339.460938 226.816406 342.292969 238.242188 C 348.246094 262.28125 354.191406 286.320312 360.132812 310.359375 C 360.855469 313.285156 360.175781 314.386719 357.191406 314.476562 C 352.476562 314.613281 347.757812 314.535156 343.042969 314.492188 C 340.890625 314.46875 339.640625 313.339844 339.113281 311.210938 C 337.746094 305.695312 336.1875 300.222656 334.90625 294.683594 C 334.398438 292.472656 333.476562 291.613281 331.128906 291.652344 C 323.160156 291.792969 315.1875 291.765625 307.214844 291.683594 C 304.921875 291.660156 303.796875 292.371094 303.3125 294.78125 C 302.242188 300.113281 300.847656 305.378906 299.539062 310.660156 C 298.769531 313.765625 297.792969 314.519531 294.585938 314.535156 C 290.4375 314.5625 286.289062 314.554688 282.140625 314.519531 C 278.34375 314.488281 277.628906 313.582031 278.527344 309.9375 C 284.671875 285.113281 290.820312 260.289062 296.976562 235.46875 C 299.597656 224.910156 302.300781 214.371094 304.84375 203.796875 C 305.4375 201.335938 306.746094 200.503906 309.144531 200.527344 C 316.136719 200.605469 323.132812 200.554688 330.347656 200.5625 M 322.511719 244.074219 C 321.5 239.9375 320.492188 235.800781 319.480469 231.664062 C 318.664062 232.582031 318.324219 233.476562 318.109375 234.398438 C 316.960938 239.300781 315.847656 244.210938 314.710938 249.117188 C 313.121094 255.996094 311.558594 262.882812 309.910156 269.75 C 309.445312 271.6875 309.992188 272.476562 312.019531 272.410156 C 314.617188 272.324219 317.222656 272.386719 319.824219 272.386719 C 322.726562 272.386719 325.632812 272.386719 328.902344 272.386719 C 326.730469 262.800781 324.65625 253.636719 322.511719 244.074219 Z M 322.511719 244.074219 "/>
<path style=" stroke:none;fill-rule:nonzero;fill:rgb(0%,0%,0%);fill-opacity:1;" d="M 201.96875 233.398438 C 201.960938 218.34375 201.949219 203.535156 201.957031 188.726562 C 201.957031 184.878906 202.453125 184.421875 206.363281 184.417969 C 210.921875 184.410156 215.476562 184.410156 220.035156 184.414062 C 223.933594 184.414062 224.300781 184.785156 224.300781 188.796875 C 224.308594 203.441406 224.3125 218.089844 224.3125 232.734375 C 224.3125 251.613281 224.339844 270.492188 224.253906 289.371094 C 224.242188 291.699219 224.886719 292.441406 227.265625 292.417969 C 238.496094 292.304688 249.722656 292.363281 260.953125 292.375 C 264.738281 292.378906 265.546875 293.152344 265.59375 296.933594 C 265.644531 301.082031 265.613281 305.230469 265.617188 309.382812 C 265.617188 313.886719 264.964844 314.53125 260.335938 314.539062 C 252.527344 314.542969 244.714844 314.53125 236.902344 314.53125 C 226.894531 314.527344 216.886719 314.539062 206.875 314.523438 C 202.59375 314.519531 201.964844 313.863281 201.964844 309.5625 C 201.964844 284.253906 201.96875 258.949219 201.96875 233.398438 Z M 201.96875 233.398438 "/>
<path style=" stroke:none;fill-rule:nonzero;fill:rgb(0%,0%,0%);fill-opacity:1;" d="M 395.605469 277.832031 C 395.609375 288.570312 395.621094 299.066406 395.605469 309.5625 C 395.601562 313.664062 394.71875 314.523438 390.546875 314.539062 C 386.070312 314.558594 381.597656 314.574219 377.121094 314.515625 C 373.796875 314.472656 372.898438 313.550781 372.898438 310.292969 C 372.886719 275.0625 372.886719 239.835938 372.890625 204.609375 C 372.890625 201.183594 373.5625 200.554688 377.09375 200.550781 C 381.652344 200.542969 386.207031 200.546875 390.761719 200.546875 C 394.875 200.546875 395.609375 201.257812 395.609375 205.34375 C 395.613281 229.425781 395.609375 253.507812 395.605469 277.832031 Z M 395.605469 277.832031 "/>
<path style=" stroke:none;fill-rule:nonzero;fill:rgb(0%,0%,0%);fill-opacity:1;" d="M 106.515625 264.039062 C 104.667969 261.628906 104.476562 259.109375 105.328125 256.496094 C 106.132812 254.015625 108.539062 252.410156 110.886719 252.636719 C 114.140625 252.953125 115.910156 254.523438 116.390625 257.488281 C 116.683594 259.289062 116.675781 261.054688 115.851562 262.722656 C 114.105469 266.242188 110 266.878906 106.515625 264.039062 Z M 106.515625 264.039062 "/>
</g>
</svg>
