<?xml version="1.0" encoding="UTF-8"?>
<svg xmlns="http://www.w3.org/2000/svg" xmlns:xlink="http://www.w3.org/1999/xlink" width="300px" height="300px" viewBox="0 0 300 300" version="1.1">
<g id="surface1">
<path style=" stroke:none;fill-rule:nonzero;fill:rgb(0%,0%,0%);fill-opacity:1;" d="M 68.574219 192.449219 C 65.980469 196.617188 62.265625 198.40625 57.574219 197.6875 C 53.03125 196.984375 50.1875 194.160156 49.023438 189.714844 C 48.691406 188.441406 48.628906 187.113281 48.628906 185.792969 C 48.636719 170.804688 48.636719 155.820312 48.640625 140.832031 C 48.640625 138.722656 48.644531 138.722656 46.589844 138.679688 C 44.328125 138.628906 42.816406 137.285156 42.761719 135.277344 C 42.707031 133.246094 44.28125 131.792969 46.597656 131.75 C 48.636719 131.707031 48.640625 131.707031 48.640625 129.742188 C 48.636719 125.398438 48.621094 121.050781 48.644531 116.707031 C 48.648438 115.78125 48.453125 115.179688 47.441406 114.847656 C 44.488281 113.882812 42.417969 111.859375 41.261719 109.011719 C 40.785156 107.84375 40.109375 107.429688 38.941406 107.574219 C 38.605469 107.613281 38.253906 107.605469 37.917969 107.574219 C 35.664062 107.371094 33.839844 107.570312 32.535156 110.015625 C 31.367188 112.203125 28.851562 112.789062 26.417969 112.835938 C 23.003906 112.898438 19.582031 112.898438 16.167969 112.832031 C 11.472656 112.742188 8.453125 109.597656 8.445312 104.886719 C 8.4375 99.226562 8.4375 93.5625 8.449219 87.898438 C 8.457031 83.398438 11.578125 80.230469 16.074219 80.191406 C 19.6875 80.15625 23.300781 80.113281 26.910156 80.207031 C 29.851562 80.285156 32.195312 81.558594 33.507812 84.292969 C 33.933594 85.175781 34.445312 85.585938 35.40625 85.460938 C 35.691406 85.421875 35.996094 85.421875 36.28125 85.460938 C 38.914062 85.808594 40.746094 85.332031 42.089844 82.46875 C 43.652344 79.136719 46.925781 77.613281 50.679688 77.597656 C 59.417969 77.566406 68.160156 77.421875 76.894531 77.632812 C 86.148438 77.855469 94.691406 80.46875 101.964844 86.441406 C 108.105469 91.484375 111.414062 98.121094 112.578125 105.894531 C 112.824219 107.527344 112.929688 109.183594 113.097656 110.832031 C 113.113281 110.976562 113.113281 111.125 113.117188 111.269531 C 113.167969 113.238281 112.332031 114.652344 110.757812 115.265625 C 109.339844 115.820312 107.765625 115.257812 106.542969 113.714844 C 104.097656 110.628906 101.195312 108.042969 97.929688 105.851562 C 92.332031 102.097656 86.105469 100.417969 79.433594 100.15625 C 78.605469 100.121094 78.265625 100.371094 78.289062 101.207031 C 78.320312 102.425781 78.300781 103.648438 78.289062 104.867188 C 78.238281 109.339844 75.695312 113.144531 71.496094 114.714844 C 70.148438 115.214844 69.785156 115.910156 69.8125 117.269531 C 69.894531 121.515625 69.886719 125.765625 69.816406 130.011719 C 69.792969 131.351562 70.191406 131.914062 71.558594 131.753906 C 72.332031 131.664062 73.121094 131.738281 73.847656 132.097656 C 75.230469 132.777344 76.019531 134.363281 75.722656 135.878906 C 75.40625 137.507812 74.179688 138.546875 72.429688 138.671875 C 69.847656 138.851562 69.851562 138.851562 69.847656 141.457031 C 69.847656 143.117188 69.867188 144.777344 69.824219 146.4375 C 69.777344 148.3125 68.539062 149.585938 66.632812 149.808594 C 65.101562 149.988281 63.640625 148.953125 63.152344 147.292969 C 62.6875 145.714844 62.957031 144.089844 62.941406 142.488281 C 62.902344 138.675781 62.929688 138.675781 59.058594 138.675781 C 58.328125 138.679688 57.59375 138.695312 56.863281 138.683594 C 56.0625 138.667969 55.6875 139.046875 55.722656 139.839844 C 55.730469 139.988281 55.71875 140.132812 55.71875 140.28125 C 55.71875 155.804688 55.714844 171.332031 55.726562 186.855469 C 55.726562 188.890625 56.449219 190.050781 57.9375 190.59375 C 60.425781 191.503906 62.777344 189.984375 62.898438 187.300781 C 62.984375 185.351562 62.925781 183.398438 62.929688 181.445312 C 62.929688 176.5625 62.898438 171.679688 62.9375 166.796875 C 62.964844 163.949219 65.160156 162.230469 67.550781 163.121094 C 68.957031 163.644531 69.820312 164.648438 69.824219 166.203125 C 69.835938 173.625 69.84375 181.042969 69.800781 188.464844 C 69.792969 189.839844 69.273438 191.132812 68.574219 192.449219 M 68.875 108.289062 C 70.597656 107.617188 71.351562 106.273438 71.347656 104.511719 C 71.328125 98.367188 71.265625 92.222656 71.214844 86.078125 C 71.214844 85.933594 71.203125 85.785156 71.199219 85.640625 C 71.191406 84.851562 70.796875 84.484375 70.011719 84.503906 C 69.039062 84.527344 68.0625 84.539062 67.089844 84.542969 C 61.675781 84.570312 56.261719 84.53125 50.851562 84.648438 C 48.46875 84.703125 47.3125 86.011719 47.296875 88.402344 C 47.257812 93.867188 47.253906 99.335938 47.285156 104.800781 C 47.300781 107.015625 48.898438 108.523438 51.128906 108.535156 C 55.570312 108.554688 60.011719 108.570312 64.453125 108.554688 C 65.859375 108.546875 67.261719 108.429688 68.875 108.289062 M 20.363281 105.734375 C 22.214844 105.734375 24.070312 105.699219 25.925781 105.75 C 27.070312 105.78125 27.457031 105.316406 27.449219 104.1875 C 27.40625 99.113281 27.402344 94.039062 27.453125 88.964844 C 27.464844 87.640625 26.980469 87.105469 25.664062 87.125 C 22.929688 87.171875 20.195312 87.167969 17.464844 87.128906 C 16.082031 87.113281 15.457031 87.585938 15.480469 89.09375 C 15.550781 94.019531 15.539062 98.949219 15.480469 103.878906 C 15.464844 105.230469 15.832031 105.894531 17.289062 105.75 C 18.207031 105.65625 19.144531 105.734375 20.363281 105.734375 M 102.765625 98.070312 C 97.519531 89.316406 89.222656 85.878906 79.589844 84.765625 C 78.507812 84.644531 78.246094 85.171875 78.269531 86.132812 C 78.316406 87.9375 78.351562 89.75 78.269531 91.550781 C 78.214844 92.777344 78.707031 93.121094 79.871094 93.179688 C 88.128906 93.597656 95.804688 95.847656 102.65625 100.609375 C 102.984375 100.839844 103.324219 101.222656 103.890625 100.925781 C 103.867188 99.921875 103.25 99.128906 102.765625 98.070312 M 61.550781 131.757812 C 62.425781 131.8125 62.9375 131.507812 62.933594 130.527344 C 62.917969 125.894531 62.925781 121.265625 62.941406 116.632812 C 62.945312 115.84375 62.621094 115.46875 61.8125 115.476562 C 60.152344 115.496094 58.496094 115.5 56.839844 115.484375 C 56.039062 115.476562 55.695312 115.832031 55.695312 116.628906 C 55.707031 121.257812 55.714844 125.890625 55.695312 130.523438 C 55.691406 131.492188 56.140625 131.796875 57.042969 131.773438 C 58.453125 131.734375 59.871094 131.761719 61.550781 131.757812 M 40.335938 99.859375 C 40.34375 97.765625 40.335938 95.671875 40.367188 93.578125 C 40.382812 92.710938 40.035156 92.34375 39.15625 92.375 C 37.988281 92.414062 36.816406 92.421875 35.648438 92.371094 C 34.722656 92.332031 34.300781 92.65625 34.34375 93.625 C 34.390625 94.742188 34.351562 95.863281 34.355469 96.984375 C 34.355469 100.660156 34.355469 100.6875 38.035156 100.648438 C 38.796875 100.640625 39.722656 101.042969 40.335938 99.859375 Z M 40.335938 99.859375 "/>
<path style=" stroke:none;fill-rule:nonzero;fill:rgb(0%,0%,0%);fill-opacity:1;" d="M 289.195312 122.078125 C 286.84375 127.039062 283.949219 131.566406 281.351562 136.261719 C 278.679688 141.085938 275.917969 145.859375 273.144531 150.628906 C 272.617188 151.535156 272.601562 152.253906 273.085938 153.191406 C 278.496094 163.691406 283.867188 174.210938 289.246094 184.726562 C 289.445312 185.117188 289.660156 185.5 289.839844 185.902344 C 290.621094 187.621094 290.144531 188.609375 288.253906 188.667969 C 284.84375 188.773438 281.421875 188.710938 278.007812 188.667969 C 276.722656 188.652344 276.054688 187.765625 275.511719 186.703125 C 271.921875 179.65625 268.308594 172.625 264.699219 165.589844 C 264.417969 165.039062 264.214844 164.425781 263.433594 163.90625 C 262.242188 166.550781 260.175781 168.664062 260.214844 171.777344 C 260.277344 176.464844 260.234375 181.152344 260.226562 185.839844 C 260.21875 188.066406 259.582031 188.707031 257.339844 188.722656 C 254.804688 188.742188 252.265625 188.726562 249.726562 188.714844 C 247.28125 188.699219 246.636719 188.050781 246.632812 185.542969 C 246.621094 178.660156 246.628906 171.773438 246.628906 164.890625 C 246.625 151.121094 246.621094 137.355469 246.621094 123.585938 C 246.621094 120.832031 247.113281 120.332031 249.839844 120.328125 C 252.429688 120.328125 255.015625 120.316406 257.605469 120.332031 C 259.574219 120.34375 260.222656 120.992188 260.226562 122.984375 C 260.238281 130.164062 260.234375 137.339844 260.234375 144.515625 C 260.234375 145.039062 260.234375 145.558594 260.234375 146.222656 C 261.066406 145.933594 261.21875 145.324219 261.488281 144.859375 C 265.785156 137.476562 270.101562 130.105469 274.328125 122.683594 C 275.28125 121.015625 276.425781 120.195312 278.417969 120.292969 C 281.289062 120.433594 284.175781 120.316406 287.058594 120.335938 C 288.15625 120.34375 289.136719 120.570312 289.195312 122.078125 Z M 289.195312 122.078125 "/>
<path style=" stroke:none;fill-rule:nonzero;fill:rgb(0%,0%,0%);fill-opacity:1;" d="M 198.207031 120.335938 C 199.636719 120.40625 200 121.328125 200.261719 122.382812 C 201.957031 129.238281 203.675781 136.089844 205.375 142.945312 C 208.949219 157.367188 212.515625 171.792969 216.078125 186.214844 C 216.511719 187.96875 216.105469 188.632812 214.316406 188.683594 C 211.488281 188.765625 208.65625 188.71875 205.824219 188.695312 C 204.535156 188.683594 203.785156 188.003906 203.46875 186.726562 C 202.648438 183.417969 201.710938 180.132812 200.945312 176.8125 C 200.640625 175.484375 200.085938 174.96875 198.675781 174.992188 C 193.894531 175.074219 189.113281 175.058594 184.328125 175.011719 C 182.953125 174.996094 182.277344 175.421875 181.988281 176.867188 C 181.34375 180.066406 180.507812 183.226562 179.722656 186.398438 C 179.261719 188.257812 178.675781 188.710938 176.75 188.722656 C 174.261719 188.738281 171.773438 188.734375 169.285156 188.710938 C 167.007812 188.691406 166.578125 188.148438 167.117188 185.960938 C 170.800781 171.066406 174.492188 156.175781 178.1875 141.28125 C 179.757812 134.945312 181.382812 128.625 182.90625 122.277344 C 183.261719 120.800781 184.046875 120.300781 185.488281 120.316406 C 189.683594 120.363281 193.878906 120.332031 198.207031 120.335938 M 193.507812 146.445312 C 192.902344 143.960938 192.292969 141.480469 191.6875 138.996094 C 191.199219 139.550781 190.996094 140.085938 190.863281 140.640625 C 190.175781 143.582031 189.507812 146.527344 188.828125 149.46875 C 187.875 153.597656 186.933594 157.730469 185.945312 161.851562 C 185.667969 163.011719 185.996094 163.488281 187.210938 163.445312 C 188.769531 163.394531 190.332031 163.433594 191.894531 163.433594 C 193.636719 163.433594 195.378906 163.433594 197.339844 163.433594 C 196.039062 157.679688 194.792969 152.183594 193.507812 146.445312 Z M 193.507812 146.445312 "/>
<path style=" stroke:none;fill-rule:nonzero;fill:rgb(0%,0%,0%);fill-opacity:1;" d="M 121.179688 140.039062 C 121.175781 131.007812 121.167969 122.121094 121.171875 113.234375 C 121.175781 110.925781 121.472656 110.652344 123.816406 110.648438 C 126.550781 110.648438 129.285156 110.648438 132.019531 110.648438 C 134.359375 110.648438 134.582031 110.871094 134.582031 113.277344 C 134.585938 122.066406 134.585938 130.851562 134.585938 139.640625 C 134.585938 150.96875 134.605469 162.296875 134.550781 173.621094 C 134.546875 175.019531 134.929688 175.464844 136.359375 175.449219 C 143.097656 175.382812 149.835938 175.417969 156.570312 175.425781 C 158.84375 175.425781 159.328125 175.890625 159.355469 178.160156 C 159.386719 180.648438 159.367188 183.140625 159.371094 185.628906 C 159.371094 188.332031 158.980469 188.71875 156.203125 188.722656 C 151.515625 188.726562 146.828125 188.71875 142.140625 188.71875 C 136.136719 188.71875 130.132812 188.722656 124.125 188.714844 C 121.554688 188.710938 121.179688 188.316406 121.179688 185.738281 C 121.179688 170.554688 121.179688 155.371094 121.179688 140.039062 Z M 121.179688 140.039062 "/>
<path style=" stroke:none;fill-rule:nonzero;fill:rgb(0%,0%,0%);fill-opacity:1;" d="M 237.363281 166.699219 C 237.363281 173.144531 237.371094 179.441406 237.363281 185.738281 C 237.359375 188.199219 236.832031 188.714844 234.328125 188.722656 C 231.644531 188.734375 228.957031 188.742188 226.273438 188.710938 C 224.277344 188.683594 223.738281 188.128906 223.738281 186.175781 C 223.734375 165.039062 223.730469 143.902344 223.734375 122.765625 C 223.734375 120.710938 224.136719 120.332031 226.257812 120.328125 C 228.992188 120.324219 231.722656 120.328125 234.457031 120.328125 C 236.925781 120.328125 237.363281 120.753906 237.367188 123.207031 C 237.367188 137.65625 237.363281 152.105469 237.363281 166.699219 Z M 237.363281 166.699219 "/>
<path style=" stroke:none;fill-rule:nonzero;fill:rgb(0%,0%,0%);fill-opacity:1;" d="M 63.910156 158.421875 C 62.800781 156.976562 62.6875 155.464844 63.195312 153.898438 C 63.679688 152.410156 65.121094 151.445312 66.53125 151.582031 C 68.484375 151.773438 69.546875 152.714844 69.835938 154.492188 C 70.007812 155.574219 70.007812 156.632812 69.511719 157.632812 C 68.464844 159.746094 66 160.125 63.910156 158.421875 Z M 63.910156 158.421875 "/>
</g>
</svg>
