<?xml version="1.0" encoding="UTF-8"?>
<svg xmlns="http://www.w3.org/2000/svg" xmlns:xlink="http://www.w3.org/1999/xlink" width="200px" height="200px" viewBox="0 0 200 200" version="1.1">
<g id="surface1">
<path style=" stroke:none;fill-rule:nonzero;fill:rgb(0%,0%,0%);fill-opacity:1;" d="M 45.71875 128.300781 C 43.988281 131.078125 41.507812 132.273438 38.382812 131.789062 C 35.355469 131.324219 33.457031 129.441406 32.683594 126.476562 C 32.460938 125.625 32.417969 124.742188 32.421875 123.863281 C 32.421875 113.871094 32.425781 103.878906 32.429688 93.886719 C 32.429688 92.480469 32.429688 92.480469 31.058594 92.453125 C 29.550781 92.417969 28.542969 91.523438 28.507812 90.183594 C 28.46875 88.828125 29.519531 87.863281 31.0625 87.832031 C 32.425781 87.804688 32.425781 87.804688 32.425781 86.496094 C 32.425781 83.597656 32.414062 80.703125 32.429688 77.804688 C 32.433594 77.1875 32.300781 76.785156 31.625 76.566406 C 29.65625 75.921875 28.28125 74.574219 27.507812 72.675781 C 27.1875 71.894531 26.738281 71.621094 25.960938 71.714844 C 25.734375 71.742188 25.503906 71.738281 25.277344 71.714844 C 23.777344 71.578125 22.5625 71.710938 21.691406 73.34375 C 20.910156 74.800781 19.234375 75.195312 17.613281 75.222656 C 15.335938 75.265625 13.054688 75.265625 10.777344 75.222656 C 7.648438 75.164062 5.632812 73.066406 5.628906 69.925781 C 5.625 66.148438 5.625 62.375 5.632812 58.597656 C 5.640625 55.597656 7.71875 53.488281 10.714844 53.460938 C 13.125 53.4375 15.535156 53.410156 17.941406 53.472656 C 19.898438 53.523438 21.464844 54.371094 22.335938 56.195312 C 22.621094 56.785156 22.960938 57.058594 23.601562 56.972656 C 23.796875 56.949219 23.996094 56.949219 24.1875 56.972656 C 25.941406 57.207031 27.164062 56.890625 28.058594 54.980469 C 29.101562 52.757812 31.285156 51.742188 33.785156 51.734375 C 39.613281 51.710938 45.441406 51.617188 51.261719 51.753906 C 57.433594 51.902344 63.128906 53.644531 67.976562 57.628906 C 72.070312 60.988281 74.277344 65.414062 75.050781 70.59375 C 75.214844 71.6875 75.285156 72.789062 75.398438 73.886719 C 75.40625 73.984375 75.410156 74.082031 75.414062 74.179688 C 75.445312 75.492188 74.890625 76.433594 73.839844 76.84375 C 72.894531 77.214844 71.84375 76.839844 71.03125 75.8125 C 69.398438 73.753906 67.460938 72.03125 65.285156 70.570312 C 61.554688 68.066406 57.402344 66.945312 52.953125 66.769531 C 52.40625 66.75 52.175781 66.914062 52.191406 67.472656 C 52.214844 68.285156 52.203125 69.097656 52.191406 69.914062 C 52.160156 72.894531 50.464844 75.429688 47.664062 76.476562 C 46.765625 76.8125 46.523438 77.273438 46.542969 78.179688 C 46.597656 81.011719 46.589844 83.84375 46.542969 86.675781 C 46.527344 87.566406 46.792969 87.941406 47.707031 87.835938 C 48.222656 87.773438 48.746094 87.824219 49.234375 88.066406 C 50.152344 88.519531 50.679688 89.574219 50.484375 90.585938 C 50.269531 91.671875 49.453125 92.367188 48.285156 92.449219 C 46.566406 92.566406 46.566406 92.566406 46.566406 94.304688 C 46.566406 95.410156 46.578125 96.519531 46.550781 97.625 C 46.519531 98.875 45.691406 99.722656 44.421875 99.871094 C 43.398438 99.992188 42.425781 99.300781 42.101562 98.195312 C 41.789062 97.144531 41.972656 96.0625 41.960938 94.992188 C 41.9375 92.449219 41.953125 92.449219 39.371094 92.453125 C 38.882812 92.453125 38.394531 92.460938 37.90625 92.453125 C 37.375 92.445312 37.125 92.699219 37.148438 93.226562 C 37.152344 93.324219 37.144531 93.421875 37.144531 93.519531 C 37.144531 103.871094 37.144531 114.21875 37.148438 124.570312 C 37.152344 125.929688 37.632812 126.699219 38.625 127.0625 C 40.285156 127.671875 41.851562 126.65625 41.929688 124.867188 C 41.988281 123.570312 41.953125 122.265625 41.953125 120.960938 C 41.953125 117.707031 41.933594 114.453125 41.960938 111.199219 C 41.976562 109.300781 43.441406 108.152344 45.03125 108.746094 C 45.96875 109.097656 46.546875 109.765625 46.550781 110.800781 C 46.558594 115.75 46.5625 120.695312 46.535156 125.644531 C 46.527344 126.558594 46.179688 127.421875 45.71875 128.300781 M 45.917969 72.191406 C 47.0625 71.746094 47.566406 70.847656 47.5625 69.675781 C 47.550781 65.578125 47.507812 61.480469 47.476562 57.386719 C 47.476562 57.289062 47.46875 57.191406 47.464844 57.09375 C 47.460938 56.566406 47.199219 56.324219 46.675781 56.335938 C 46.023438 56.351562 45.375 56.359375 44.726562 56.363281 C 41.117188 56.382812 37.507812 56.355469 33.902344 56.433594 C 32.3125 56.46875 31.542969 57.34375 31.53125 58.933594 C 31.503906 62.578125 31.5 66.222656 31.523438 69.867188 C 31.53125 71.34375 32.597656 72.347656 34.085938 72.355469 C 37.046875 72.371094 40.007812 72.378906 42.96875 72.367188 C 43.90625 72.363281 44.84375 72.285156 45.917969 72.191406 M 13.574219 70.488281 C 14.8125 70.492188 16.046875 70.464844 17.28125 70.5 C 18.046875 70.519531 18.304688 70.210938 18.296875 69.457031 C 18.273438 66.074219 18.269531 62.691406 18.300781 59.308594 C 18.308594 58.425781 17.988281 58.070312 17.109375 58.085938 C 15.285156 58.113281 13.464844 58.113281 11.644531 58.085938 C 10.71875 58.074219 10.304688 58.390625 10.320312 59.394531 C 10.367188 62.679688 10.359375 65.964844 10.320312 69.25 C 10.308594 70.15625 10.554688 70.59375 11.527344 70.5 C 12.140625 70.4375 12.761719 70.488281 13.574219 70.488281 M 68.511719 65.378906 C 65.011719 59.542969 59.480469 57.253906 53.058594 56.511719 C 52.335938 56.429688 52.164062 56.78125 52.179688 57.421875 C 52.210938 58.625 52.234375 59.832031 52.179688 61.035156 C 52.144531 61.851562 52.472656 62.082031 53.246094 62.121094 C 58.753906 62.398438 63.871094 63.898438 68.4375 67.074219 C 68.65625 67.226562 68.882812 67.480469 69.257812 67.285156 C 69.242188 66.613281 68.835938 66.085938 68.511719 65.378906 M 41.035156 87.835938 C 41.617188 87.875 41.957031 87.671875 41.957031 87.019531 C 41.945312 83.929688 41.949219 80.84375 41.960938 77.753906 C 41.960938 77.230469 41.746094 76.980469 41.207031 76.984375 C 40.101562 77 38.996094 77 37.894531 76.988281 C 37.359375 76.984375 37.128906 77.21875 37.128906 77.753906 C 37.136719 80.839844 37.144531 83.925781 37.128906 87.015625 C 37.125 87.660156 37.425781 87.863281 38.027344 87.847656 C 38.96875 87.824219 39.914062 87.839844 41.035156 87.835938 M 26.890625 66.574219 C 26.894531 65.179688 26.890625 63.78125 26.910156 62.386719 C 26.921875 61.808594 26.691406 61.5625 26.101562 61.582031 C 25.324219 61.609375 24.542969 61.613281 23.765625 61.578125 C 23.148438 61.554688 22.867188 61.773438 22.894531 62.417969 C 22.929688 63.160156 22.902344 63.910156 22.902344 64.65625 C 22.902344 67.109375 22.902344 67.125 25.355469 67.097656 C 25.863281 67.09375 26.480469 67.363281 26.890625 66.574219 Z M 26.890625 66.574219 "/>
<path style=" stroke:none;fill-rule:nonzero;fill:rgb(0%,0%,0%);fill-opacity:1;" d="M 192.796875 81.386719 C 191.230469 84.691406 189.300781 87.710938 187.566406 90.84375 C 185.789062 94.058594 183.945312 97.242188 182.097656 100.417969 C 181.746094 101.023438 181.734375 101.503906 182.058594 102.128906 C 185.664062 109.128906 189.246094 116.140625 192.832031 123.152344 C 192.964844 123.410156 193.105469 123.667969 193.226562 123.933594 C 193.746094 125.078125 193.429688 125.738281 192.171875 125.777344 C 189.894531 125.847656 187.613281 125.808594 185.335938 125.78125 C 184.480469 125.769531 184.035156 125.175781 183.675781 124.46875 C 181.28125 119.773438 178.871094 115.082031 176.46875 110.394531 C 176.277344 110.027344 176.144531 109.617188 175.625 109.269531 C 174.828125 111.035156 173.449219 112.445312 173.476562 114.519531 C 173.515625 117.640625 173.492188 120.769531 173.484375 123.890625 C 173.480469 125.378906 173.054688 125.804688 171.5625 125.816406 C 169.867188 125.828125 168.175781 125.820312 166.484375 125.808594 C 164.855469 125.800781 164.425781 125.367188 164.421875 123.695312 C 164.414062 119.105469 164.417969 114.515625 164.417969 109.925781 C 164.417969 100.75 164.414062 91.570312 164.414062 82.390625 C 164.414062 80.554688 164.742188 80.21875 166.5625 80.21875 C 168.285156 80.21875 170.011719 80.210938 171.734375 80.21875 C 173.046875 80.226562 173.484375 80.660156 173.484375 81.988281 C 173.492188 86.773438 173.488281 91.558594 173.488281 96.34375 C 173.488281 96.691406 173.488281 97.039062 173.488281 97.484375 C 174.042969 97.289062 174.144531 96.882812 174.324219 96.570312 C 177.191406 91.652344 180.066406 86.738281 182.886719 81.789062 C 183.519531 80.675781 184.285156 80.128906 185.613281 80.195312 C 187.527344 80.289062 189.449219 80.210938 191.371094 80.226562 C 192.101562 80.230469 192.757812 80.378906 192.796875 81.386719 Z M 192.796875 81.386719 "/>
<path style=" stroke:none;fill-rule:nonzero;fill:rgb(0%,0%,0%);fill-opacity:1;" d="M 132.140625 80.222656 C 133.089844 80.269531 133.332031 80.886719 133.507812 81.589844 C 134.640625 86.160156 135.785156 90.726562 136.917969 95.296875 C 139.296875 104.910156 141.675781 114.527344 144.054688 124.144531 C 144.34375 125.3125 144.070312 125.753906 142.875 125.789062 C 140.992188 125.84375 139.101562 125.8125 137.214844 125.796875 C 136.355469 125.789062 135.855469 125.335938 135.644531 124.484375 C 135.097656 122.277344 134.472656 120.089844 133.964844 117.875 C 133.757812 116.988281 133.390625 116.644531 132.449219 116.660156 C 129.261719 116.71875 126.074219 116.707031 122.886719 116.671875 C 121.96875 116.664062 121.519531 116.949219 121.324219 117.914062 C 120.894531 120.042969 120.339844 122.152344 119.816406 124.265625 C 119.507812 125.507812 119.117188 125.808594 117.835938 125.816406 C 116.175781 125.824219 114.515625 125.824219 112.855469 125.808594 C 111.335938 125.796875 111.050781 125.433594 111.410156 123.976562 C 113.867188 114.046875 116.328125 104.117188 118.789062 94.1875 C 119.839844 89.964844 120.921875 85.75 121.9375 81.519531 C 122.175781 80.535156 122.699219 80.203125 123.65625 80.210938 C 126.457031 80.242188 129.253906 80.222656 132.140625 80.222656 M 129.003906 97.628906 C 128.601562 95.976562 128.195312 94.320312 127.792969 92.664062 C 127.464844 93.03125 127.328125 93.390625 127.242188 93.757812 C 126.785156 95.71875 126.339844 97.683594 125.886719 99.648438 C 125.25 102.398438 124.625 105.152344 123.964844 107.898438 C 123.777344 108.675781 123.996094 108.992188 124.808594 108.964844 C 125.847656 108.929688 126.890625 108.957031 127.929688 108.957031 C 129.089844 108.957031 130.253906 108.957031 131.5625 108.957031 C 130.691406 105.121094 129.863281 101.457031 129.003906 97.628906 Z M 129.003906 97.628906 "/>
<path style=" stroke:none;fill-rule:nonzero;fill:rgb(0%,0%,0%);fill-opacity:1;" d="M 80.789062 93.359375 C 80.785156 87.339844 80.78125 81.414062 80.78125 75.492188 C 80.785156 73.949219 80.980469 73.769531 82.546875 73.765625 C 84.367188 73.765625 86.191406 73.765625 88.015625 73.765625 C 89.574219 73.765625 89.71875 73.914062 89.722656 75.519531 C 89.722656 81.375 89.726562 87.234375 89.726562 93.09375 C 89.722656 100.644531 89.738281 108.195312 89.703125 115.746094 C 89.699219 116.679688 89.953125 116.976562 90.90625 116.96875 C 95.398438 116.921875 99.890625 116.945312 104.382812 116.949219 C 105.894531 116.953125 106.21875 117.261719 106.238281 118.773438 C 106.257812 120.433594 106.246094 122.09375 106.246094 123.753906 C 106.246094 125.554688 105.984375 125.8125 104.136719 125.816406 C 101.011719 125.816406 97.886719 125.8125 94.761719 125.8125 C 90.757812 125.8125 86.753906 125.816406 82.75 125.808594 C 81.039062 125.808594 80.785156 125.546875 80.785156 123.824219 C 80.785156 113.703125 80.785156 103.578125 80.789062 93.359375 Z M 80.789062 93.359375 "/>
<path style=" stroke:none;fill-rule:nonzero;fill:rgb(0%,0%,0%);fill-opacity:1;" d="M 158.242188 111.132812 C 158.242188 115.429688 158.246094 119.625 158.242188 123.824219 C 158.242188 125.464844 157.886719 125.808594 156.21875 125.816406 C 154.429688 125.824219 152.636719 125.828125 150.847656 125.804688 C 149.519531 125.789062 149.160156 125.421875 149.160156 124.117188 C 149.15625 110.027344 149.15625 95.933594 149.15625 81.84375 C 149.15625 80.472656 149.425781 80.222656 150.839844 80.21875 C 152.660156 80.21875 154.484375 80.21875 156.304688 80.21875 C 157.949219 80.21875 158.242188 80.503906 158.242188 82.136719 C 158.246094 91.769531 158.242188 101.402344 158.242188 111.132812 Z M 158.242188 111.132812 "/>
<path style=" stroke:none;fill-rule:nonzero;fill:rgb(0%,0%,0%);fill-opacity:1;" d="M 42.605469 105.613281 C 41.867188 104.652344 41.792969 103.644531 42.132812 102.597656 C 42.453125 101.605469 43.414062 100.964844 44.355469 101.054688 C 45.65625 101.179688 46.363281 101.808594 46.554688 102.996094 C 46.671875 103.714844 46.671875 104.421875 46.339844 105.089844 C 45.644531 106.496094 44 106.75 42.605469 105.613281 Z M 42.605469 105.613281 "/>
</g>
</svg>
