<?xml version="1.0" encoding="UTF-8"?>
<svg xmlns="http://www.w3.org/2000/svg" xmlns:xlink="http://www.w3.org/1999/xlink" width="180px" height="180px" viewBox="0 0 180 180" version="1.1">
<g id="surface1">
<path style=" stroke:none;fill-rule:nonzero;fill:rgb(0%,0%,0%);fill-opacity:1;" d="M 103.238281 99.84375 C 103.238281 102.832031 103.203125 105.734375 103.257812 108.632812 C 103.273438 109.542969 102.964844 109.78125 102.09375 109.761719 C 99.988281 109.707031 97.875 109.742188 95.765625 109.742188 C 94.566406 109.738281 94.554688 109.726562 94.554688 108.503906 C 94.558594 95.496094 94.558594 82.488281 94.558594 69.480469 C 94.558594 67.519531 94.578125 65.554688 94.546875 63.59375 C 94.535156 62.832031 94.734375 62.484375 95.585938 62.503906 C 97.78125 62.558594 99.980469 62.554688 102.175781 62.503906 C 103.054688 62.480469 103.253906 62.820312 103.253906 63.628906 C 103.230469 71.394531 103.238281 79.15625 103.238281 86.921875 C 103.238281 87.125 103.21875 87.332031 103.238281 87.535156 C 103.273438 87.867188 103.074219 88.308594 103.484375 88.484375 C 103.945312 88.683594 104.15625 88.25 104.382812 87.960938 C 105.441406 86.59375 106.488281 85.21875 107.539062 83.847656 C 109.378906 81.457031 111.234375 79.078125 113.054688 76.671875 C 113.445312 76.148438 113.886719 75.921875 114.53125 75.925781 C 116.757812 75.945312 118.984375 75.925781 121.210938 75.933594 C 121.550781 75.933594 121.976562 75.828125 122.160156 76.210938 C 122.359375 76.625 122.15625 77.003906 121.890625 77.34375 C 120.007812 79.773438 118.125 82.207031 116.242188 84.636719 C 114.648438 86.699219 113.070312 88.777344 111.441406 90.808594 C 111 91.355469 111.050781 91.71875 111.441406 92.253906 C 115.328125 97.539062 119.191406 102.839844 123.0625 108.140625 C 123.214844 108.351562 123.390625 108.558594 123.492188 108.796875 C 123.714844 109.328125 123.65625 109.738281 122.945312 109.738281 C 120.308594 109.742188 117.671875 109.730469 115.035156 109.75 C 114.492188 109.753906 114.273438 109.394531 114.011719 109.046875 C 110.871094 104.882812 107.730469 100.71875 104.59375 96.558594 C 104.503906 96.441406 104.421875 96.320312 104.328125 96.207031 C 104.105469 95.941406 103.898438 95.566406 103.484375 95.730469 C 103.105469 95.878906 103.25 96.289062 103.246094 96.59375 C 103.230469 97.644531 103.238281 98.703125 103.238281 99.84375 Z M 103.238281 99.84375 "/>
<path style=" stroke:none;fill-rule:nonzero;fill:rgb(0%,0%,0%);fill-opacity:1;" d="M 169.363281 102.203125 C 168.683594 100.734375 168.03125 99.328125 167.390625 97.914062 C 166.9375 96.917969 167.195312 95.960938 168 95.5625 C 168.890625 95.121094 169.832031 95.457031 170.320312 96.492188 C 171.710938 99.429688 173.105469 102.367188 174.414062 105.339844 C 175.472656 107.742188 174.382812 110.515625 172.035156 111.667969 C 169.636719 112.851562 166.800781 112.101562 165.574219 109.746094 C 164.167969 107.050781 162.957031 104.25 161.671875 101.488281 C 159.785156 97.429688 157.902344 93.363281 156.015625 89.300781 C 155.953125 89.175781 155.855469 89.0625 155.789062 88.964844 C 155.398438 88.914062 155.140625 89.132812 154.847656 89.253906 C 153.925781 89.628906 152.964844 89.261719 152.5625 88.378906 C 152.222656 87.636719 152.527344 86.683594 153.390625 86.332031 C 154.300781 85.960938 154.285156 85.519531 153.902344 84.746094 C 153.078125 83.097656 152.320312 81.414062 151.578125 79.726562 C 151.328125 79.160156 151.003906 78.902344 150.375 78.964844 C 148.914062 79.117188 147.679688 78.585938 146.613281 77.613281 C 146.527344 77.535156 146.449219 77.4375 146.34375 77.390625 C 145.773438 77.132812 143.53125 78.441406 143.496094 79.066406 C 143.414062 80.523438 142.691406 81.546875 141.390625 82.160156 C 139.832031 82.898438 138.269531 83.644531 136.6875 84.328125 C 135.070312 85.027344 133.257812 84.472656 132.441406 82.921875 C 131.03125 80.257812 129.769531 77.511719 128.625 74.726562 C 127.953125 73.089844 128.65625 71.347656 130.246094 70.546875 C 131.914062 69.703125 133.628906 68.933594 135.351562 68.203125 C 136.484375 67.726562 137.609375 67.902344 138.585938 68.65625 C 138.988281 68.96875 139.347656 69.050781 139.777344 68.78125 C 139.800781 68.765625 139.828125 68.753906 139.855469 68.742188 C 141.0625 68.335938 141.941406 67.847656 141.933594 66.234375 C 141.925781 64.65625 142.855469 63.335938 144.367188 62.632812 C 148.480469 60.71875 152.546875 58.675781 156.75 56.980469 C 161.183594 55.191406 165.765625 54.953125 170.253906 56.960938 C 173.789062 58.542969 176.144531 61.316406 177.773438 64.761719 C 178.09375 65.445312 177.992188 66.097656 177.472656 66.628906 C 176.914062 67.203125 176.214844 67.214844 175.519531 66.902344 C 174.019531 66.230469 172.492188 65.648438 170.871094 65.34375 C 167.398438 64.695312 164.078125 65.191406 160.832031 66.609375 C 160.890625 67.238281 161.226562 67.699219 161.472656 68.183594 C 162.582031 70.402344 162.332031 72.433594 160.648438 74.253906 C 160.316406 74.609375 160.257812 74.867188 160.472656 75.316406 C 161.351562 77.132812 162.199219 78.96875 163.03125 80.808594 C 163.296875 81.402344 163.582031 81.59375 164.234375 81.28125 C 165.25 80.796875 166.171875 81.097656 166.558594 81.917969 C 166.980469 82.816406 166.632812 83.765625 165.609375 84.21875 C 164.945312 84.507812 164.898438 84.851562 165.195312 85.4375 C 165.589844 86.21875 165.960938 87.019531 166.289062 87.832031 C 166.660156 88.757812 166.300781 89.644531 165.449219 90.042969 C 164.734375 90.378906 163.820312 90.0625 163.371094 89.230469 C 162.820312 88.207031 162.347656 87.140625 161.832031 86.0625 C 160.847656 86.355469 160.042969 86.835938 159.203125 87.234375 C 158.640625 87.496094 158.992188 87.886719 159.128906 88.195312 C 160.195312 90.542969 161.277344 92.882812 162.363281 95.21875 C 164.289062 99.359375 166.222656 103.496094 168.160156 107.632812 C 168.726562 108.847656 169.644531 109.226562 170.613281 108.675781 C 171.410156 108.226562 171.726562 107.390625 171.335938 106.492188 C 170.722656 105.066406 170.042969 103.671875 169.363281 102.203125 M 158.46875 69.601562 C 157.519531 67.554688 156.582031 65.507812 155.625 63.464844 C 154.675781 61.445312 154.667969 61.449219 152.628906 62.40625 C 150.484375 63.414062 148.328125 64.410156 146.195312 65.4375 C 145.195312 65.917969 144.878906 66.691406 145.28125 67.582031 C 146.320312 69.875 147.367188 72.164062 148.449219 74.4375 C 149.027344 75.65625 149.792969 75.933594 151.027344 75.378906 C 153.242188 74.382812 155.449219 73.363281 157.644531 72.320312 C 158.832031 71.753906 159.0625 70.988281 158.46875 69.601562 M 137.285156 72.675781 C 137.132812 72.359375 136.976562 72.042969 136.832031 71.722656 C 136.6875 71.402344 136.476562 71.277344 136.136719 71.441406 C 134.8125 72.066406 133.488281 72.695312 132.164062 73.316406 C 131.800781 73.488281 131.726562 73.722656 131.902344 74.09375 C 132.917969 76.269531 133.925781 78.449219 134.921875 80.632812 C 135.152344 81.144531 135.464844 81.261719 135.964844 81.023438 C 137.078125 80.496094 138.1875 79.960938 139.320312 79.488281 C 140.03125 79.195312 140.148438 78.796875 139.828125 78.128906 C 138.980469 76.359375 138.167969 74.570312 137.285156 72.675781 M 161.058594 59.203125 C 160.234375 59.402344 159.40625 59.59375 158.589844 59.808594 C 157.984375 59.964844 157.773438 60.304688 158.085938 60.910156 C 158.390625 61.511719 158.683594 62.121094 158.921875 62.75 C 159.167969 63.402344 159.503906 63.554688 160.1875 63.28125 C 163.597656 61.933594 167.136719 61.476562 170.785156 61.960938 C 170.996094 61.988281 171.253906 62.097656 171.421875 61.800781 C 171.21875 61.28125 170.746094 61.023438 170.3125 60.742188 C 167.5 58.921875 164.425781 58.621094 161.058594 59.203125 M 160.011719 82.117188 C 159.378906 80.734375 158.773438 79.339844 158.105469 77.972656 C 157.183594 76.097656 157.5 76.105469 155.433594 77.039062 C 154.578125 77.421875 154.378906 77.851562 154.746094 78.710938 C 155.261719 79.917969 155.820312 81.109375 156.386719 82.296875 C 157.464844 84.558594 157.460938 84.539062 159.703125 83.351562 C 160.257812 83.058594 160.328125 82.734375 160.011719 82.117188 M 141.605469 74.171875 C 142.355469 75.683594 142.152344 75.425781 143.507812 74.855469 C 143.75 74.753906 143.984375 74.628906 144.21875 74.511719 C 144.570312 74.335938 144.652344 74.085938 144.472656 73.71875 C 144.101562 72.957031 143.75 72.183594 143.398438 71.414062 C 143.242188 71.0625 143.03125 70.957031 142.636719 71.089844 C 140.636719 71.761719 140.542969 71.960938 141.433594 73.816406 C 141.472656 73.894531 141.511719 73.972656 141.605469 74.171875 Z M 141.605469 74.171875 "/>
<path style=" stroke:none;fill-rule:nonzero;fill:rgb(0%,0%,0%);fill-opacity:1;" d="M 61.300781 108.519531 C 60.386719 107.769531 59.835938 106.851562 59.460938 105.816406 C 59.375 105.570312 59.308594 105.277344 58.984375 105.246094 C 58.660156 105.210938 58.546875 105.492188 58.417969 105.714844 C 56.101562 109.6875 52.410156 110.628906 48.179688 110.347656 C 46.246094 110.21875 44.429688 109.648438 42.816406 108.578125 C 40.335938 106.929688 39.285156 104.441406 38.972656 101.589844 C 38.777344 99.769531 38.882812 97.957031 39.558594 96.238281 C 40.496094 93.847656 42.375 92.40625 44.667969 91.449219 C 47.222656 90.382812 49.945312 89.949219 52.640625 89.410156 C 53.957031 89.148438 55.277344 88.863281 56.503906 88.28125 C 57.921875 87.609375 58.429688 86.703125 58.296875 85.105469 C 58.199219 83.890625 57.429688 82.949219 56.011719 82.667969 C 52.238281 81.917969 48.808594 82.765625 45.78125 85.15625 C 45.253906 85.570312 44.75 86.019531 44.265625 86.484375 C 43.75 86.984375 43.300781 87 42.890625 86.394531 C 41.890625 84.914062 40.914062 83.417969 39.902344 81.945312 C 39.550781 81.429688 39.875 81.152344 40.1875 80.828125 C 42.679688 78.277344 45.734375 76.726562 49.152344 75.902344 C 52.773438 75.027344 56.425781 75.09375 60.003906 76.15625 C 64.074219 77.367188 66.566406 80.804688 66.671875 85.277344 C 66.78125 90.078125 66.835938 94.878906 66.695312 99.679688 C 66.6875 99.882812 66.691406 100.089844 66.691406 100.292969 C 66.695312 102.6875 67.410156 103.308594 69.753906 102.867188 C 70.410156 102.746094 70.625 103.003906 70.6875 103.554688 C 70.859375 105.183594 71.019531 106.808594 71.199219 108.433594 C 71.246094 108.882812 70.964844 109.085938 70.621094 109.199219 C 67.445312 110.285156 64.328125 110.414062 61.300781 108.519531 M 50.96875 95.339844 C 50.503906 95.519531 50.027344 95.664062 49.582031 95.878906 C 47.953125 96.667969 47.414062 98.046875 47.460938 99.769531 C 47.511719 101.472656 48.167969 102.769531 49.78125 103.460938 C 52.792969 104.746094 56.40625 103.304688 57.761719 100.328125 C 58.738281 98.1875 58.46875 95.921875 58.453125 93.6875 C 58.449219 93.085938 57.988281 93.183594 57.628906 93.414062 C 56.933594 93.863281 56.171875 94.164062 55.375 94.355469 C 53.957031 94.691406 52.53125 94.992188 50.96875 95.339844 Z M 50.96875 95.339844 "/>
<path style=" stroke:none;fill-rule:nonzero;fill:rgb(0%,0%,0%);fill-opacity:1;" d="M 9.492188 109.742188 C 8.527344 109.738281 7.648438 109.726562 6.769531 109.742188 C 6.285156 109.75 6.070312 109.539062 6.09375 109.054688 C 6.109375 108.824219 6.09375 108.589844 6.09375 108.355469 C 6.09375 94.355469 6.09375 80.355469 6.09375 66.355469 C 6.09375 65.109375 6.097656 65.082031 7.355469 65.066406 C 9.582031 65.042969 11.808594 65.085938 14.035156 65.042969 C 14.890625 65.023438 15.136719 65.359375 15.132812 66.179688 C 15.109375 72.945312 15.121094 79.710938 15.117188 86.472656 C 15.117188 91.277344 15.117188 96.082031 15.117188 100.882812 C 15.117188 102.140625 15.183594 102.222656 16.460938 102.226562 C 22.289062 102.234375 28.117188 102.25 33.945312 102.214844 C 34.769531 102.207031 35.085938 102.378906 35.058594 103.261719 C 34.996094 105.074219 35.003906 106.894531 35.054688 108.707031 C 35.078125 109.519531 34.808594 109.757812 34.003906 109.757812 C 25.863281 109.730469 17.722656 109.742188 9.492188 109.742188 Z M 9.492188 109.742188 "/>
<path style=" stroke:none;fill-rule:nonzero;fill:rgb(0%,0%,0%);fill-opacity:1;" d="M 76.472656 87.363281 C 76.472656 83.878906 76.496094 80.484375 76.460938 77.089844 C 76.453125 76.234375 76.714844 75.890625 77.617188 75.910156 C 79.78125 75.964844 81.949219 75.945312 84.113281 75.917969 C 84.832031 75.910156 85.160156 76.101562 85.15625 76.910156 C 85.132812 87.503906 85.136719 98.097656 85.15625 108.695312 C 85.15625 109.46875 84.957031 109.78125 84.121094 109.761719 C 81.984375 109.707031 79.847656 109.742188 77.710938 109.742188 C 76.488281 109.738281 76.476562 109.730469 76.476562 108.523438 C 76.472656 101.5 76.472656 94.476562 76.472656 87.363281 Z M 76.472656 87.363281 "/>
<path style=" stroke:none;fill-rule:nonzero;fill:rgb(0%,0%,0%);fill-opacity:1;" d="M 82.066406 62.1875 C 85.234375 63.109375 86.78125 65.6875 85.960938 68.574219 C 85.222656 71.15625 82.503906 72.664062 79.601562 72.097656 C 77 71.59375 75.347656 69.359375 75.566406 66.640625 C 75.773438 64.03125 77.933594 62.089844 80.683594 62.0625 C 81.117188 62.058594 81.554688 62.136719 82.066406 62.1875 Z M 82.066406 62.1875 "/>
<path style=" stroke:none;fill-rule:nonzero;fill:rgb(0%,0%,0%);fill-opacity:1;" d="M 165.933594 90.667969 C 167.371094 90.546875 168.132812 91.105469 168.34375 92.390625 C 168.449219 93.058594 168.203125 93.585938 167.65625 93.976562 C 167.132812 94.351562 166.574219 94.386719 166.011719 94.089844 C 164.632812 93.363281 164.5625 91.554688 165.933594 90.667969 Z M 165.933594 90.667969 "/>
</g>
</svg>
