<?xml version="1.0" encoding="UTF-8"?>
<svg xmlns="http://www.w3.org/2000/svg" xmlns:xlink="http://www.w3.org/1999/xlink" width="180px" height="180px" viewBox="0 0 180 180" version="1.1">
<g id="surface1">
<path style=" stroke:none;fill-rule:nonzero;fill:rgb(0%,0%,0%);fill-opacity:1;" d="M 41.144531 115.46875 C 39.589844 117.96875 37.359375 119.042969 34.546875 118.613281 C 31.820312 118.191406 30.113281 116.496094 29.414062 113.828125 C 29.214844 113.0625 29.179688 112.269531 29.179688 111.476562 C 29.179688 102.484375 29.183594 93.492188 29.183594 84.5 C 29.183594 83.234375 29.1875 83.234375 27.953125 83.207031 C 26.597656 83.175781 25.691406 82.371094 25.65625 81.167969 C 25.625 79.945312 26.570312 79.078125 27.957031 79.050781 C 29.183594 79.023438 29.183594 79.023438 29.183594 77.84375 C 29.183594 75.238281 29.171875 72.632812 29.1875 70.023438 C 29.1875 69.46875 29.070312 69.105469 28.464844 68.910156 C 26.691406 68.332031 25.453125 67.117188 24.757812 65.40625 C 24.46875 64.707031 24.066406 64.457031 23.363281 64.542969 C 23.164062 64.570312 22.953125 64.5625 22.75 64.542969 C 21.398438 64.421875 20.304688 64.542969 19.519531 66.007812 C 18.820312 67.320312 17.308594 67.675781 15.851562 67.699219 C 13.800781 67.738281 11.75 67.738281 9.699219 67.699219 C 6.882812 67.644531 5.070312 65.757812 5.066406 62.933594 C 5.0625 59.535156 5.0625 56.136719 5.070312 52.738281 C 5.074219 50.039062 6.945312 48.140625 9.644531 48.113281 C 11.8125 48.09375 13.980469 48.066406 16.148438 48.125 C 17.910156 48.171875 19.316406 48.933594 20.105469 50.574219 C 20.359375 51.105469 20.667969 51.351562 21.242188 51.277344 C 21.414062 51.253906 21.597656 51.253906 21.769531 51.277344 C 23.347656 51.484375 24.449219 51.199219 25.253906 49.480469 C 26.191406 47.480469 28.15625 46.566406 30.40625 46.558594 C 35.652344 46.539062 40.894531 46.453125 46.136719 46.578125 C 51.6875 46.714844 56.8125 48.28125 61.179688 51.863281 C 64.863281 54.890625 66.847656 58.871094 67.546875 63.535156 C 67.695312 64.515625 67.757812 65.511719 67.859375 66.5 C 67.867188 66.585938 67.867188 66.675781 67.871094 66.761719 C 67.902344 67.941406 67.398438 68.792969 66.457031 69.160156 C 65.605469 69.492188 64.660156 69.15625 63.925781 68.230469 C 62.457031 66.375 60.714844 64.828125 58.757812 63.511719 C 55.398438 61.257812 51.664062 60.25 47.660156 60.09375 C 47.164062 60.074219 46.957031 60.222656 46.972656 60.726562 C 46.992188 61.457031 46.980469 62.1875 46.972656 62.921875 C 46.941406 65.605469 45.417969 67.886719 42.898438 68.828125 C 42.089844 69.128906 41.871094 69.546875 41.886719 70.363281 C 41.9375 72.910156 41.933594 75.460938 41.890625 78.007812 C 41.875 78.8125 42.113281 79.148438 42.933594 79.050781 C 43.398438 78.996094 43.871094 79.042969 44.308594 79.257812 C 45.136719 79.667969 45.613281 80.617188 45.433594 81.527344 C 45.242188 82.503906 44.507812 83.128906 43.457031 83.203125 C 41.910156 83.3125 41.910156 83.3125 41.910156 84.875 C 41.910156 85.871094 41.921875 86.867188 41.894531 87.863281 C 41.867188 88.988281 41.125 89.75 39.980469 89.886719 C 39.058594 89.992188 38.183594 89.371094 37.890625 88.375 C 37.613281 87.429688 37.773438 86.453125 37.765625 85.492188 C 37.742188 83.207031 37.757812 83.207031 35.433594 83.207031 C 34.996094 83.207031 34.554688 83.214844 34.117188 83.210938 C 33.636719 83.203125 33.414062 83.425781 33.433594 83.90625 C 33.4375 83.992188 33.429688 84.082031 33.429688 84.167969 C 33.429688 93.484375 33.429688 102.796875 33.433594 112.113281 C 33.4375 113.335938 33.867188 114.03125 34.761719 114.355469 C 36.257812 114.902344 37.667969 113.988281 37.738281 112.382812 C 37.789062 111.210938 37.757812 110.039062 37.757812 108.867188 C 37.757812 105.9375 37.738281 103.007812 37.761719 100.078125 C 37.777344 98.371094 39.097656 97.335938 40.53125 97.871094 C 41.375 98.1875 41.894531 98.789062 41.894531 99.722656 C 41.902344 104.175781 41.90625 108.625 41.878906 113.078125 C 41.875 113.90625 41.5625 114.679688 41.144531 115.46875 M 41.324219 64.972656 C 42.359375 64.570312 42.8125 63.761719 42.808594 62.707031 C 42.796875 59.019531 42.757812 55.332031 42.730469 51.648438 C 42.730469 51.558594 42.722656 51.472656 42.71875 51.382812 C 42.714844 50.910156 42.476562 50.691406 42.007812 50.703125 C 41.421875 50.71875 40.839844 50.722656 40.253906 50.726562 C 37.007812 50.742188 33.757812 50.71875 30.511719 50.789062 C 29.082031 50.820312 28.386719 51.609375 28.378906 53.042969 C 28.355469 56.320312 28.351562 59.601562 28.371094 62.878906 C 28.378906 64.210938 29.339844 65.113281 30.679688 65.121094 C 33.34375 65.132812 36.007812 65.144531 38.671875 65.132812 C 39.515625 65.128906 40.359375 65.058594 41.324219 64.972656 M 12.21875 63.441406 C 13.328125 63.441406 14.441406 63.417969 15.554688 63.449219 C 16.242188 63.46875 16.472656 63.191406 16.46875 62.511719 C 16.445312 59.46875 16.441406 56.421875 16.472656 53.378906 C 16.480469 52.582031 16.1875 52.261719 15.398438 52.277344 C 13.757812 52.300781 12.117188 52.300781 10.480469 52.277344 C 9.648438 52.265625 9.273438 52.550781 9.289062 53.457031 C 9.332031 56.414062 9.324219 59.371094 9.289062 62.328125 C 9.277344 63.140625 9.5 63.535156 10.375 63.449219 C 10.925781 63.394531 11.484375 63.441406 12.21875 63.441406 M 61.660156 58.839844 C 58.511719 53.589844 53.535156 51.527344 47.753906 50.859375 C 47.105469 50.785156 46.949219 51.101562 46.960938 51.679688 C 46.988281 52.761719 47.011719 53.847656 46.960938 54.929688 C 46.929688 55.664062 47.222656 55.871094 47.921875 55.910156 C 52.878906 56.160156 57.484375 57.507812 61.59375 60.367188 C 61.792969 60.503906 61.996094 60.734375 62.332031 60.554688 C 62.320312 59.953125 61.949219 59.476562 61.660156 58.839844 M 36.929688 79.054688 C 37.457031 79.085938 37.761719 78.90625 37.761719 78.316406 C 37.75 75.539062 37.757812 72.757812 37.765625 69.980469 C 37.765625 69.507812 37.570312 69.28125 37.085938 69.285156 C 36.09375 69.296875 35.097656 69.300781 34.101562 69.289062 C 33.625 69.285156 33.417969 69.5 33.417969 69.976562 C 33.425781 72.753906 33.429688 75.535156 33.417969 78.3125 C 33.414062 78.894531 33.683594 79.078125 34.226562 79.0625 C 35.074219 79.042969 35.921875 79.054688 36.929688 79.054688 M 24.199219 59.917969 C 24.207031 58.660156 24.199219 57.402344 24.222656 56.148438 C 24.230469 55.628906 24.023438 55.40625 23.492188 55.425781 C 22.792969 55.449219 22.089844 55.453125 21.390625 55.421875 C 20.832031 55.398438 20.582031 55.59375 20.605469 56.175781 C 20.636719 56.847656 20.613281 57.519531 20.613281 58.191406 C 20.613281 60.398438 20.613281 60.410156 22.820312 60.386719 C 23.277344 60.382812 23.832031 60.625 24.199219 59.917969 Z M 24.199219 59.917969 "/>
<path style=" stroke:none;fill-rule:nonzero;fill:rgb(0%,0%,0%);fill-opacity:1;" d="M 173.515625 73.246094 C 172.105469 76.222656 170.371094 78.941406 168.8125 81.757812 C 167.207031 84.652344 165.550781 87.515625 163.886719 90.378906 C 163.570312 90.921875 163.5625 91.351562 163.851562 91.914062 C 167.097656 98.214844 170.320312 104.527344 173.546875 110.835938 C 173.667969 111.070312 173.796875 111.300781 173.90625 111.539062 C 174.375 112.570312 174.085938 113.164062 172.953125 113.199219 C 170.90625 113.261719 168.855469 113.226562 166.804688 113.203125 C 166.035156 113.191406 165.632812 112.660156 165.304688 112.023438 C 163.152344 107.792969 160.984375 103.574219 158.820312 99.355469 C 158.652344 99.023438 158.53125 98.65625 158.0625 98.34375 C 157.34375 99.929688 156.105469 101.199219 156.128906 103.066406 C 156.164062 105.878906 156.140625 108.691406 156.136719 111.503906 C 156.132812 112.839844 155.75 113.226562 154.40625 113.234375 C 152.882812 113.246094 151.359375 113.238281 149.835938 113.226562 C 148.367188 113.21875 147.980469 112.832031 147.980469 111.324219 C 147.972656 107.195312 147.976562 103.066406 147.976562 98.933594 C 147.976562 90.671875 147.972656 82.414062 147.972656 74.152344 C 147.972656 72.5 148.269531 72.199219 149.90625 72.199219 C 151.457031 72.195312 153.011719 72.1875 154.5625 72.199219 C 155.742188 72.207031 156.132812 72.59375 156.136719 73.792969 C 156.144531 78.097656 156.140625 82.402344 156.140625 86.710938 C 156.140625 87.023438 156.140625 87.335938 156.140625 87.734375 C 156.640625 87.558594 156.730469 87.195312 156.894531 86.914062 C 159.472656 82.484375 162.0625 78.0625 164.597656 73.609375 C 165.167969 72.609375 165.855469 72.117188 167.050781 72.175781 C 168.773438 72.261719 170.507812 72.191406 172.234375 72.203125 C 172.894531 72.207031 173.480469 72.34375 173.515625 73.246094 Z M 173.515625 73.246094 "/>
<path style=" stroke:none;fill-rule:nonzero;fill:rgb(0%,0%,0%);fill-opacity:1;" d="M 118.925781 72.203125 C 119.78125 72.246094 120 72.796875 120.15625 73.429688 C 121.175781 77.542969 122.207031 81.652344 123.226562 85.765625 C 125.367188 94.421875 127.507812 103.074219 129.648438 111.730469 C 129.90625 112.78125 129.664062 113.179688 128.589844 113.210938 C 126.890625 113.261719 125.191406 113.230469 123.496094 113.214844 C 122.71875 113.210938 122.269531 112.800781 122.082031 112.035156 C 121.589844 110.050781 121.027344 108.078125 120.566406 106.085938 C 120.382812 105.289062 120.050781 104.980469 119.207031 104.996094 C 116.335938 105.046875 113.46875 105.035156 110.597656 105.007812 C 109.769531 104.996094 109.367188 105.253906 109.191406 106.121094 C 108.808594 108.039062 108.304688 109.9375 107.832031 111.839844 C 107.558594 112.957031 107.207031 113.226562 106.050781 113.234375 C 104.558594 113.242188 103.0625 113.238281 101.570312 113.226562 C 100.203125 113.214844 99.945312 112.890625 100.269531 111.578125 C 102.480469 102.640625 104.695312 93.703125 106.910156 84.769531 C 107.855469 80.96875 108.828125 77.175781 109.742188 73.367188 C 109.957031 72.480469 110.429688 72.179688 111.292969 72.191406 C 113.808594 72.21875 116.328125 72.199219 118.925781 72.203125 M 116.105469 87.867188 C 115.742188 86.378906 115.375 84.886719 115.011719 83.398438 C 114.71875 83.730469 114.597656 84.050781 114.519531 84.382812 C 114.105469 86.148438 113.703125 87.914062 113.296875 89.683594 C 112.722656 92.160156 112.160156 94.636719 111.566406 97.109375 C 111.402344 97.808594 111.597656 98.09375 112.328125 98.066406 C 113.261719 98.035156 114.199219 98.058594 115.136719 98.058594 C 116.183594 98.058594 117.226562 98.058594 118.40625 98.058594 C 117.625 94.609375 116.875 91.308594 116.105469 87.867188 Z M 116.105469 87.867188 "/>
<path style=" stroke:none;fill-rule:nonzero;fill:rgb(0%,0%,0%);fill-opacity:1;" d="M 72.707031 84.023438 C 72.707031 78.605469 72.703125 73.273438 72.703125 67.941406 C 72.703125 66.554688 72.882812 66.390625 74.289062 66.390625 C 75.929688 66.386719 77.570312 66.386719 79.210938 66.390625 C 80.617188 66.390625 80.75 66.523438 80.75 67.964844 C 80.75 73.238281 80.753906 78.511719 80.753906 83.785156 C 80.753906 90.582031 80.761719 97.378906 80.730469 104.171875 C 80.726562 105.011719 80.957031 105.277344 81.816406 105.269531 C 85.859375 105.230469 89.902344 105.25 93.941406 105.253906 C 95.304688 105.257812 95.597656 105.535156 95.613281 106.894531 C 95.632812 108.390625 95.621094 109.882812 95.621094 111.378906 C 95.621094 113 95.386719 113.230469 93.722656 113.234375 C 90.910156 113.234375 88.097656 113.230469 85.285156 113.230469 C 81.683594 113.230469 78.078125 113.234375 74.476562 113.230469 C 72.933594 113.226562 72.707031 112.992188 72.707031 111.441406 C 72.707031 102.332031 72.707031 93.222656 72.707031 84.023438 Z M 72.707031 84.023438 "/>
<path style=" stroke:none;fill-rule:nonzero;fill:rgb(0%,0%,0%);fill-opacity:1;" d="M 142.417969 100.019531 C 142.417969 103.886719 142.421875 107.664062 142.417969 111.441406 C 142.417969 112.917969 142.097656 113.230469 140.597656 113.234375 C 138.984375 113.242188 137.375 113.246094 135.765625 113.226562 C 134.566406 113.210938 134.242188 112.878906 134.242188 111.703125 C 134.238281 99.023438 134.238281 86.339844 134.242188 73.660156 C 134.242188 72.425781 134.484375 72.199219 135.753906 72.199219 C 137.394531 72.195312 139.035156 72.195312 140.675781 72.195312 C 142.15625 72.195312 142.417969 72.453125 142.417969 73.921875 C 142.421875 82.59375 142.417969 91.261719 142.417969 100.019531 Z M 142.417969 100.019531 "/>
<path style=" stroke:none;fill-rule:nonzero;fill:rgb(0%,0%,0%);fill-opacity:1;" d="M 38.34375 95.054688 C 37.679688 94.1875 37.613281 93.28125 37.917969 92.339844 C 38.207031 91.445312 39.074219 90.867188 39.917969 90.949219 C 41.089844 91.0625 41.726562 91.628906 41.902344 92.695312 C 42.003906 93.34375 42.003906 93.980469 41.707031 94.578125 C 41.078125 95.847656 39.597656 96.074219 38.34375 95.054688 Z M 38.34375 95.054688 "/>
</g>
</svg>
