<svg version="1.1" id="Layer_1" xmlns="http://www.w3.org/2000/svg" xmlns:xlink="http://www.w3.org/1999/xlink" x="0px" y="0px"
	 width="100%" viewBox="0 0 1024 1024" enable-background="new 0 0 1024 1024" xml:space="preserve">
<path fill="#000000" opacity="1.000000" stroke="none" 
	d="
M234.070801,656.896179 
	C225.211624,671.114868 212.527908,677.232361 196.523270,674.767700 
	C181.017883,672.379944 171.305878,662.731384 167.331787,647.553772 
	C166.194199,643.209229 165.989182,638.684509 165.990677,634.177856 
	C166.007736,583.019287 166.017838,531.860718 166.030518,480.702179 
	C166.032303,473.507629 166.034088,473.507690 159.028290,473.353882 
	C151.308350,473.184387 146.149796,468.602783 145.960892,461.748016 
	C145.769669,454.809357 151.146927,449.859650 159.049423,449.700104 
	C166.013199,449.559479 166.023407,449.559479 166.022324,442.854340 
	C166.019913,428.023376 165.959152,413.192169 166.034653,398.361633 
	C166.050751,395.200897 165.388199,393.142975 161.929794,392.013885 
	C151.847885,388.722412 144.791290,381.814667 140.835251,372.097260 
	C139.209488,368.103821 136.908096,366.699280 132.917099,367.182922 
	C131.767532,367.322266 130.578491,367.293976 129.421570,367.188538 
	C121.731506,366.487579 115.512558,367.168304 111.053207,375.514648 
	C107.063934,382.981232 98.474052,384.991211 90.175743,385.141968 
	C78.514893,385.353882 66.843773,385.361572 55.183144,385.138397 
	C39.163857,384.831818 28.847437,374.094940 28.828140,358.018829 
	C28.804935,338.688568 28.795231,319.358185 28.836964,300.027985 
	C28.870125,284.667999 39.518604,273.859253 54.865032,273.714813 
	C67.195305,273.598755 79.533852,273.453644 91.856995,273.773407 
	C101.888565,274.033691 109.893570,278.380951 114.369865,287.714386 
	C115.820686,290.739471 117.567276,292.137695 120.849327,291.705048 
	C121.831734,291.575531 122.860893,291.579803 123.843872,291.709900 
	C132.823303,292.898193 139.080460,291.272278 143.664810,281.494385 
	C148.999039,270.117157 160.177505,264.919617 172.983597,264.871399 
	C202.811798,264.759033 232.654282,264.270721 262.465607,264.988373 
	C294.051636,265.748688 323.210846,274.667877 348.036407,295.052368 
	C368.994476,312.261200 380.295105,334.915710 384.268097,361.446991 
	C385.104218,367.030457 385.464355,372.685303 386.037231,378.307953 
	C386.087830,378.804535 386.099213,379.305878 386.112091,379.805420 
	C386.285034,386.518280 383.433228,391.347290 378.059937,393.446167 
	C373.219910,395.336761 367.845856,393.418365 363.672882,388.153107 
	C355.317352,377.610321 345.408142,368.792725 334.260071,361.311768 
	C315.161621,348.495575 293.907410,342.764191 271.129547,341.863922 
	C268.312164,341.752594 267.143951,342.597961 267.220795,345.455933 
	C267.332794,349.618652 267.270355,353.787323 267.223389,357.952820 
	C267.051361,373.212250 258.378632,386.205109 244.043793,391.554382 
	C239.439285,393.272644 238.200485,395.641663 238.291931,400.284973 
	C238.577377,414.777039 238.549438,429.281006 238.300781,443.774475 
	C238.222305,448.348846 239.580139,450.261749 244.255554,449.717163 
	C246.898773,449.409241 249.584579,449.668274 252.070160,450.893372 
	C256.784332,453.216919 259.479797,458.625793 258.472260,463.795135 
	C257.387573,469.360413 253.197495,472.911560 247.220367,473.331360 
	C238.414200,473.949860 238.422989,473.949890 238.418213,482.841827 
	C238.415161,488.507416 238.480606,494.175598 238.335129,499.837952 
	C238.170761,506.234589 233.949631,510.587494 227.441666,511.344574 
	C222.208176,511.953400 217.228043,508.423615 215.558441,502.764801 
	C213.968414,497.375702 214.894104,491.830109 214.840607,486.361237 
	C214.713303,473.346863 214.804993,473.344727 201.586914,473.352417 
	C199.087387,473.353882 196.587250,473.407867 194.088501,473.367920 
	C191.366241,473.324432 190.083542,474.610382 190.201843,477.324249 
	C190.223587,477.822845 190.185593,478.323761 190.185608,478.823608 
	C190.186554,531.815186 190.172821,584.806702 190.209290,637.798279 
	C190.214066,644.752563 192.676895,648.702332 197.765228,650.564270 
	C206.257431,653.671753 214.279861,648.477173 214.689392,639.323181 
	C214.987015,632.670288 214.792542,625.994873 214.795029,619.329468 
	C214.801285,602.665466 214.690552,586.000488 214.833206,569.337769 
	C214.916443,559.615173 222.414917,553.742859 230.567764,556.786865 
	C235.369644,558.579651 238.325592,561.998352 238.333405,567.305359 
	C238.370636,592.634094 238.400894,617.963379 238.251602,643.291443 
	C238.223892,647.988892 236.447266,652.401855 234.070801,656.896179 
M235.094849,369.624573 
	C240.967346,367.333374 243.547256,362.740234 243.529388,356.738434 
	C243.466904,335.762939 243.248245,314.787964 243.086304,293.812805 
	C243.082458,293.313385 243.033997,292.814362 243.029434,292.314941 
	C243.004944,289.628174 241.653503,288.377594 238.970459,288.442352 
	C235.647278,288.522614 232.322662,288.560974 228.998459,288.577850 
	C210.522629,288.671692 192.042084,288.538330 173.573029,288.938385 
	C165.438339,289.114624 161.494934,293.590942 161.436005,301.747528 
	C161.301239,320.404663 161.287247,339.063782 161.402466,357.721039 
	C161.449142,365.279724 166.909424,370.428040 174.523300,370.464417 
	C189.682297,370.536835 204.841904,370.589569 220.000748,370.528381 
	C224.797089,370.509033 229.591858,370.101593 235.094849,369.624573 
M69.502922,360.909882 
	C75.831757,360.910828 82.164192,360.783234 88.488106,360.960144 
	C92.396652,361.069489 93.718506,359.482574 93.688370,355.625305 
	C93.553055,338.305359 93.531586,320.982758 93.704491,303.663452 
	C93.749634,299.141327 92.090843,297.320007 87.593399,297.392151 
	C78.269096,297.541779 68.939545,297.531097 59.614613,297.404327 
	C54.889515,297.340118 52.766521,298.963593 52.841423,304.106323 
	C53.086376,320.924011 53.045753,337.749084 52.841137,354.568024 
	C52.784885,359.191589 54.035591,361.446777 59.017807,360.954224 
	C62.151089,360.644470 65.340828,360.905762 69.502922,360.909882 
M350.774719,334.741974 
	C332.866699,304.860504 304.549896,293.133698 271.662598,289.339966 
	C267.966888,288.913635 267.079865,290.716156 267.164001,294.004547 
	C267.321625,300.164429 267.441162,306.340485 267.161896,312.491028 
	C266.971893,316.676483 268.651428,317.854645 272.627869,318.055634 
	C300.819977,319.480621 327.016113,327.163300 350.405304,343.416168 
	C351.525909,344.194885 352.678619,345.509888 354.609375,344.496796 
	C354.527924,341.062592 352.430847,338.366058 350.774719,334.741974 
M210.095108,449.728973 
	C213.079437,449.917358 214.821152,448.884583 214.811447,445.531189 
	C214.765686,429.723694 214.789917,413.915863 214.838547,398.108337 
	C214.846832,395.414429 213.742035,394.131866 210.982559,394.165100 
	C205.325928,394.233215 199.667618,394.243805 194.010910,394.187561 
	C191.281616,394.160431 190.100586,395.369324 190.107300,398.090302 
	C190.146210,413.898224 190.171143,429.706390 190.102234,445.514038 
	C190.087799,448.824097 191.624680,449.869720 194.703354,449.787262 
	C199.525650,449.658081 204.353714,449.743744 210.095108,449.728973 
M137.675751,340.857605 
	C137.704300,333.710480 137.674881,326.562408 137.789230,319.416656 
	C137.836609,316.455841 136.657928,315.193634 133.648239,315.300598 
	C129.663788,315.442169 125.664925,315.460785 121.682648,315.289886 
	C118.519241,315.154175 117.081436,316.272308 117.226036,319.573883 
	C117.393150,323.389801 117.259102,327.218750 117.260994,331.042053 
	C117.267204,343.592834 117.268997,343.676086 129.820816,343.542969 
	C132.426987,343.515320 135.588211,344.898132 137.675751,340.857605 
z"/>
<path fill="#000000" opacity="1.000000" stroke="none" 
	d="
M987.116455,416.697540 
	C979.097473,433.621429 969.216980,449.085541 960.347168,465.110962 
	C951.231995,481.579712 941.794128,497.871765 932.331726,514.144775 
	C930.534607,517.235413 930.485229,519.697449 932.135437,522.899048 
	C950.604858,558.733337 968.930359,594.641724 987.293945,630.530518 
	C987.976868,631.865234 988.705811,633.179199 989.325378,634.542908 
	C991.989624,640.406921 990.361816,643.780090 983.912659,643.980591 
	C972.261536,644.342773 960.588989,644.133972 948.927612,643.990723 
	C944.547119,643.936951 942.260376,640.908813 940.410156,637.277893 
	C928.157043,613.233093 915.829895,589.226135 903.512146,565.214355 
	C902.548584,563.336060 901.856323,561.234497 899.190735,559.462341 
	C895.115417,568.498901 888.064697,575.712891 888.201904,586.334167 
	C888.408630,602.329834 888.272034,618.330261 888.234436,634.328613 
	C888.216553,641.935120 886.046143,644.123596 878.392517,644.176086 
	C869.727173,644.235535 861.060852,644.193237 852.395264,644.141785 
	C844.051086,644.092285 841.851562,641.878967 841.837646,633.319336 
	C841.799316,609.821716 841.826904,586.323975 841.823364,562.826294 
	C841.816284,515.830872 841.805359,468.835510 841.797363,421.840118 
	C841.795776,412.433563 843.484985,410.729187 852.791077,410.725525 
	C861.623535,410.722015 870.456238,410.674683 879.288391,410.728058 
	C886.007629,410.768677 888.231323,412.981506 888.243164,419.789276 
	C888.285950,444.286774 888.260742,468.784332 888.261169,493.281891 
	C888.261230,495.061188 888.261169,496.840515 888.261169,499.113251 
	C891.109558,498.118286 891.623413,496.038452 892.548279,494.449860 
	C907.216492,469.254791 921.945312,444.093689 936.379578,418.764832 
	C939.629395,413.062164 943.536926,410.263092 950.330200,410.596863 
	C960.139038,411.078796 969.989075,410.686462 979.821045,410.750580 
	C983.567810,410.775024 986.921631,411.546509 987.116455,416.697540 
z"/>
<path fill="#000000" opacity="1.000000" stroke="none" 
	d="
M676.553223,410.748535 
	C681.426697,410.989563 682.664551,414.130402 683.557861,417.737213 
	C689.353333,441.137360 695.217834,464.520386 701.014648,487.920197 
	C713.209900,537.148438 725.382141,586.382324 737.550171,635.617249 
	C739.030029,641.605286 737.640015,643.867859 731.527527,644.045349 
	C721.875305,644.325684 712.208069,644.166443 702.548340,644.076355 
	C698.143494,644.035217 695.583862,641.718933 694.503723,637.359863 
	C691.703796,626.060242 688.508728,614.855042 685.891968,603.515198 
	C684.847046,598.986816 682.962585,597.221741 678.149109,597.305786 
	C661.829834,597.590881 645.501648,597.536255 629.179321,597.368896 
	C624.477173,597.320801 622.179626,598.778442 621.186707,603.712463 
	C618.989746,614.629700 616.132996,625.416321 613.454468,636.233765 
	C611.880066,642.592285 609.883179,644.133545 603.312988,644.171631 
	C594.818115,644.220825 586.322205,644.210266 577.827576,644.137695 
	C570.047424,644.071228 568.581726,642.213684 570.427856,634.752136 
	C583.006470,583.912048 595.597107,533.074951 608.209839,482.243256 
	C613.575439,460.618591 619.113464,439.035828 624.321167,417.373474 
	C625.532104,412.336487 628.215271,410.630981 633.127441,410.683746 
	C647.450806,410.837646 661.776917,410.732178 676.553223,410.748535 
M660.505371,499.863678 
	C658.435364,491.390656 656.365295,482.917664 654.295288,474.444641 
	C652.624023,476.327423 651.929565,478.158722 651.486633,480.048950 
	C649.134094,490.088043 646.853210,500.143860 644.531494,510.190216 
	C641.275085,524.281372 638.071594,538.385254 634.697449,552.448242 
	C633.745178,556.417114 634.867126,558.034851 639.013672,557.897217 
	C644.338013,557.720398 649.672607,557.851807 655.002747,557.851379 
	C660.947632,557.850830 666.892517,557.851257 673.592041,557.851257 
	C669.147949,538.218933 664.899475,519.450867 660.505371,499.863678 
z"/>
<path fill="#000000" opacity="1.000000" stroke="none" 
	d="
M413.630371,477.999939 
	C413.618561,447.170105 413.591095,416.840332 413.606567,386.510529 
	C413.610565,378.629395 414.623016,377.693024 422.633301,377.684143 
	C431.965546,377.673798 441.297821,377.674316 450.630066,377.678162 
	C458.617493,377.681427 459.366669,378.442627 459.370026,386.653076 
	C459.382294,416.649567 459.391418,446.646088 459.390381,476.642578 
	C459.389038,515.304749 459.451813,553.967224 459.273071,592.628601 
	C459.250977,597.398071 460.565247,598.919983 465.441162,598.870911 
	C488.436096,598.639587 511.434692,598.760864 534.432007,598.785034 
	C542.184692,598.793152 543.838196,600.374390 543.933044,608.118042 
	C544.037109,616.615845 543.979797,625.115723 543.982544,633.614685 
	C543.985535,642.837219 542.648132,644.163818 533.170776,644.172180 
	C517.172668,644.186340 501.174530,644.161865 485.176392,644.159241 
	C464.678772,644.155884 444.181152,644.178833 423.683563,644.147888 
	C414.912415,644.134644 413.625244,642.791626 413.625183,633.981750 
	C413.624817,582.154480 413.628387,530.327209 413.630371,477.999939 
z"/>
<path fill="#000000" opacity="1.000000" stroke="none" 
	d="
M810.201965,569.000000 
	C810.205688,590.993713 810.229675,612.487366 810.201599,633.981079 
	C810.190674,642.382812 808.385986,644.144714 799.838562,644.177368 
	C790.674805,644.212402 781.509705,644.244385 772.347107,644.127625 
	C765.539307,644.040833 763.695801,642.151672 763.693970,635.476257 
	C763.674500,563.330750 763.671692,491.185211 763.682434,419.039703 
	C763.683472,412.024689 765.059265,410.737518 772.290710,410.725677 
	C781.621338,410.710419 790.951904,410.716553 800.282532,410.718842 
	C808.705078,410.720886 810.206299,412.175385 810.207581,420.543304 
	C810.215088,469.862213 810.205322,519.181091 810.201965,569.000000 
z"/>
<path fill="#000000" opacity="1.000000" stroke="none" 
	d="
M218.144135,540.749023 
	C214.359619,535.816772 213.971191,530.659973 215.712326,525.305847 
	C217.363922,520.226990 222.284424,516.935425 227.092911,517.401367 
	C233.761139,518.047546 237.382874,521.266785 238.368088,527.338074 
	C238.965714,531.020874 238.955429,534.643982 237.264328,538.053894 
	C233.690216,545.260742 225.276413,546.566345 218.144135,540.749023 
z"/>
</svg>